<?xml version="1.0" encoding="UTF-8" standalone="no"?>
<!-- Created with Inkscape (http://www.inkscape.org/) -->

<svg
   xmlns:dc="http://purl.org/dc/elements/1.1/"
   xmlns:cc="http://creativecommons.org/ns#"
   xmlns:rdf="http://www.w3.org/1999/02/22-rdf-syntax-ns#"
   xmlns:svg="http://www.w3.org/2000/svg"
   xmlns="http://www.w3.org/2000/svg"
   xmlns:xlink="http://www.w3.org/1999/xlink"
   xmlns:sodipodi="http://sodipodi.sourceforge.net/DTD/sodipodi-0.dtd"
   xmlns:inkscape="http://www.inkscape.org/namespaces/inkscape"
   width="508.20001"
   height="508.20001"
   id="svg2"
   version="1.1"
   inkscape:version="0.48.4 r9939"
   sodipodi:docname="icon.svg"
   inkscape:export-filename="/home/carlos/dev/Hack/music/Music/icon.png"
   inkscape:export-xdpi="97.400002"
   inkscape:export-ydpi="97.400002">
  <defs
     id="defs4">
    <linearGradient
       id="linearGradient3900">
      <stop
         style="stop-color:#c8c9c6;stop-opacity:1;"
         offset="0"
         id="stop3902" />
      <stop
         style="stop-color:#888a85;stop-opacity:0;"
         offset="1"
         id="stop3904" />
    </linearGradient>
    <linearGradient
       id="linearGradient3892">
      <stop
         style="stop-color:#17396c;stop-opacity:1;"
         offset="0"
         id="stop3894" />
      <stop
         style="stop-color:#1467e3;stop-opacity:1;"
         offset="1"
         id="stop3896" />
    </linearGradient>
    <linearGradient
       id="linearGradient3884">
      <stop
         style="stop-color:#009c9c;stop-opacity:1;"
         offset="0"
         id="stop3886" />
      <stop
         style="stop-color:#008080;stop-opacity:0.26612905;"
         offset="1"
         id="stop3888" />
    </linearGradient>
    <linearGradient
       inkscape:collect="always"
       id="linearGradient3868">
      <stop
         style="stop-color:#a5a7a3;stop-opacity:0.77272725"
         offset="0"
         id="stop3870" />
      <stop
         style="stop-color:#b7bdb1;stop-opacity:0"
         offset="1"
         id="stop3872" />
    </linearGradient>
    <clipPath
       clipPathUnits="userSpaceOnUse"
       id="clipPath3856">
      <path
         id="path3858"
         d="M 152.02681,39.121946 C 60.6637,-75.09901 -94.260511,-85.455814 -194.0061,15.989376 -293.7517,117.43457 -300.54704,292.26651 -209.18393,406.48747 -117.82082,520.70843 37.103391,531.06523 136.84899,429.62004 236.59458,328.17485 243.38992,153.3429 152.02681,39.121946 z M 43.663589,149.3316 c 36.545241,45.68838 33.827103,115.62117 -6.071131,156.19924 -39.8982333,40.57807 -101.867926,36.43535 -138.413168,-9.25303 -36.54524,-45.68837 -33.8271,-115.62116 6.071132,-156.19923 39.898234,-40.578077 101.867926,-36.43535 138.413167,9.25302 z"
         style="fill:#162d50;fill-opacity:1;stroke:none"
         inkscape:connector-curvature="0" />
    </clipPath>
    <clipPath
       clipPathUnits="userSpaceOnUse"
       id="clipPath3864">
      <path
         id="path3866"
         d="m 372.0625,276.1875 c -138.07119,0 -250,111.92881 -250,250 0,138.07119 111.92881,250 250,250 138.07119,0 250,-111.92881 250,-250 0,-138.07119 -111.92881,-250 -250,-250 z m 0,150 c 55.22847,0 100,44.77153 100,100 0,55.22847 -44.77153,100 -100,100 -55.22847,0 -100,-44.77153 -100,-100 0,-55.22847 44.77153,-100 100,-100 z"
         style="fill:#162d50;fill-opacity:1;stroke:none"
         inkscape:connector-curvature="0" />
    </clipPath>
    <linearGradient
       inkscape:collect="always"
       xlink:href="#linearGradient3868"
       id="linearGradient3874"
       x1="335.99725"
       y1="465.82678"
       x2="458.81125"
       y2="626.51202"
       gradientUnits="userSpaceOnUse" />
    <linearGradient
       inkscape:collect="always"
       xlink:href="#linearGradient3884"
       id="linearGradient3890"
       x1="373.49109"
       y1="526.1875"
       x2="306.48132"
       y2="642.25183"
       gradientUnits="userSpaceOnUse"
       spreadMethod="reflect" />
    <linearGradient
       inkscape:collect="always"
       xlink:href="#linearGradient3892"
       id="linearGradient3898"
       x1="366.34824"
       y1="686.1875"
       x2="379.20535"
       y2="233.33034"
       gradientUnits="userSpaceOnUse" />
    <filter
       inkscape:collect="always"
       id="filter3953"
       color-interpolation-filters="sRGB">
      <feGaussianBlur
         inkscape:collect="always"
         stdDeviation="0.5"
         id="feGaussianBlur3955" />
    </filter>
    <clipPath
       clipPathUnits="userSpaceOnUse"
       id="clipPath5033">
      <path
         id="path5035"
         d="m -2143.6462,1170.2963 c -79.7515,0 -144.4028,64.6513 -144.4028,144.4028 0,79.7514 64.6513,144.4028 144.4028,144.4028 79.7514,0 144.4028,-64.6514 144.4028,-144.4028 0,-79.7515 -64.6514,-144.4028 -144.4028,-144.4028 z m 0,86.6417 c 31.9006,0 57.7611,25.8605 57.7611,57.7611 0,31.9006 -25.8605,57.7611 -57.7611,57.7611 -31.9006,0 -57.7611,-25.8605 -57.7611,-57.7611 0,-31.9006 25.8605,-57.7611 57.7611,-57.7611 z"
         style="fill:url(#linearGradient5037);fill-opacity:1;stroke:none"
         inkscape:connector-curvature="0" />
    </clipPath>
    <linearGradient
       inkscape:collect="always"
       xlink:href="#linearGradient3892"
       id="linearGradient5037"
       gradientUnits="userSpaceOnUse"
       x1="366.34824"
       y1="686.1875"
       x2="379.20535"
       y2="233.33034"
       gradientTransform="matrix(0.57761109,0,0,0.57761109,-2358.5536,1010.7674)" />
  </defs>
  <sodipodi:namedview
     id="base"
     pagecolor="#ffffff"
     bordercolor="#666666"
     borderopacity="1.0"
     inkscape:pageopacity="0.0"
     inkscape:pageshadow="2"
     inkscape:zoom="1.4"
     inkscape:cx="211.32757"
     inkscape:cy="235.29248"
     inkscape:document-units="px"
     inkscape:current-layer="layer1"
     showgrid="false"
     fit-margin-top="0"
     fit-margin-left="0"
     fit-margin-right="0"
     fit-margin-bottom="0"
     inkscape:window-width="1862"
     inkscape:window-height="1064"
     inkscape:window-x="57"
     inkscape:window-y="10"
     inkscape:window-maximized="1" />
  <metadata
     id="metadata7">
    <rdf:RDF>
      <cc:Work
         rdf:about="">
        <dc:format>image/svg+xml</dc:format>
        <dc:type
           rdf:resource="http://purl.org/dc/dcmitype/StillImage" />
        <dc:title></dc:title>
      </cc:Work>
    </rdf:RDF>
  </metadata>
  <g
     inkscape:label="Layer 1"
     inkscape:groupmode="layer"
     id="layer1"
     transform="translate(-119.5625,-273.6875)">
    <path
       style="opacity:0.38425927;fill:#000000;fill-opacity:1;stroke:#2e3436;stroke-width:5;stroke-miterlimit:4;stroke-dasharray:none;filter:url(#filter3953)"
       d="m 374.0625,278.1875 c -138.07119,0 -250,111.92881 -250,250 0,138.07119 111.92881,250 250,250 138.07119,0 250,-111.92881 250,-250 0,-138.07119 -111.92881,-250 -250,-250 z m 0,150 c 55.22847,0 100,44.77153 100,100 0,55.22847 -44.77153,100 -100,100 -55.22847,0 -100,-44.77153 -100,-100 0,-55.22847 44.77153,-100 100,-100 z"
       id="path3919"
       inkscape:connector-curvature="0" />
    <path
       style="fill:url(#linearGradient3898);fill-opacity:1;stroke:none"
       d="m 372.0625,276.1875 c -138.07119,0 -250,111.92881 -250,250 0,138.07119 111.92881,250 250,250 138.07119,0 250,-111.92881 250,-250 0,-138.07119 -111.92881,-250 -250,-250 z m 0,150 c 55.22847,0 100,44.77153 100,100 0,55.22847 -44.77153,100 -100,100 -55.22847,0 -100,-44.77153 -100,-100 0,-55.22847 44.77153,-100 100,-100 z"
       id="path3069"
       inkscape:connector-curvature="0" />
    <path
       style="fill:url(#linearGradient3890);fill-opacity:1;stroke:none"
       d="M 21.428571,425.21932 191.42858,205.21933 538.57143,830.93361 698.57144,619.50504 z"
       id="path3860"
       inkscape:connector-curvature="0"
       sodipodi:nodetypes="ccccc"
       clip-path="url(#clipPath3864)" />
    <path
       style="fill:none;stroke:#d3d7cf;stroke-width:5;stroke-miterlimit:4;stroke-dasharray:none"
       d="m 372.0625,276.1875 c -138.07119,0 -250,111.92881 -250,250 0,138.07119 111.92881,250 250,250 138.07119,0 250,-111.92881 250,-250 0,-138.07119 -111.92881,-250 -250,-250 z"
       id="path3951"
       inkscape:connector-curvature="0" />
    <path
       style="fill:#d3d7cf;fill-opacity:0.58522728;stroke:url(#linearGradient3874);stroke-width:5;stroke-miterlimit:4;stroke-dasharray:none"
       d="m 372.0625,426.1875 c -55.22847,0 -100,44.77153 -100,100 0,55.22847 44.77153,100 100,100 55.22847,0 100,-44.77153 100,-100 0,-55.22847 -44.77153,-100 -100,-100 z m 0,52.5 c 26.23353,0 47.5,21.26647 47.5,47.5 0,26.23353 -21.26647,47.5 -47.5,47.5 -26.23353,0 -47.5,-21.26647 -47.5,-47.5 0,-26.23353 21.26647,-47.5 47.5,-47.5 z"
       id="path3071"
       inkscape:connector-curvature="0" />
    <g
       id="g14408"
       transform="matrix(1.7312687,0,0,1.7312687,4083.2901,-1749.9099)"
       clip-path="url(#clipPath5033)"
       style="opacity:0.1712963">
      <g
         style="opacity:0;fill:#ffffff;fill-opacity:1"
         id="g14101"
         transform="matrix(1.5251458,0,0,1.5251458,-2525.0226,1576.0102)">
        <path
           d="M 320.5,11.8 346.8,-33.7 340.3,-58 294.8,-84.3 z M 62.9,-22.1 36.7,23.3 43.2,47.6 88.7,73.9 z m 181.6,165.5 26.3,-45.5 -96,25.7 45.4,26.3 z m -35.8,-277.4 -45.5,-26.2 -24.3,6.5 -26.3,45.4 z M 334.1,62.5 320.5,11.8 270.8,97.9 321.5,84.3 z m -221.5,-170.8 -50.7,13.6 -12.6,21.8 13.6,50.8 z m 272.6,175.5 -10.6,2.9 4.9,18.3 z M -1.7,-77.6 8.9,-80.4 3.9,-98.8 z m 375.8,186.2 -25.8,6.9 6.1,22.8 13.9,-8 z M 29,-148.7 l 77.1,-44.5 -66.6,-38.4 -16.3,61.1 z m -19.6,29.7 25.7,-6.9 -6.1,-22.8 -13.8,8 z m 350.9,279.1 -5.9,-21.8 -77.1,44.5 66.6,38.4 0,0 z M 88.7,73.9 l 13.5,50.7 21.8,12.6 50.8,-13.6 z m 160.5,135.6 9.1,-15.7 -18.1,10.4 z M -7.2,61.4 -17.7,43.3 -23,52.3 z M -17.7,43.3 -4.4,20.2 -24.8,8.4 -28.9,23.9 z m 425.9,-62.1 -23,86 74.2,-19.9 -31.6,-54.8 z m -24,124.7 -4.7,-17.5 -5.4,20.2 z m -106.9,76.9 -9.5,-5.5 -9.5,16.5 z m -17.9,-330.4 -50.7,13.6 86.1,49.7 -13.6,-50.7 z m 131.3,75.8 10.5,18.2 5.2,-9.1 z m -265.6,-132.4 18.2,-10.4 -9.1,-5.3 z M -24.8,8.4 l 23.1,-86 -74.3,19.9 31.6,54.8 z m 426,-62 -13.4,23 20.4,11.8 4.2,-15.4 z M 3.9,-98.8 9.4,-119 l -10.2,2.7 z m 102.2,-94.4 9.5,5.5 9.5,-16.5 z M 77.9,177.2 71,151.4 l -22.8,6.1 8,13.9 z m 257.3,-345.1 44.5,77.1 38.5,-66.6 -61.2,-16.3 z M 48.2,157.5 3.7,80.4 -34.7,147 26.4,163.4 z m 257.3,-345 6.9,25.7 22.8,-6.1 -8,-13.8 z m -41.4,-11.1 2.9,10.5 18.3,-4.9 z m -144.8,386.9 -2.8,-10.6 -18.4,4.9 z m 260.4,-279.1 -5.5,9.5 16.5,9.5 z m -76.9,-106.9 -17.5,4.7 20.2,5.5 z m -62.6,401.9 -23.1,-13.3 -11.8,20.4 15.5,4.1 z m -62.1,-425.9 86,23.1 -19.9,-74.3 -54.8,31.6 z M 3.7,80.4 9.2,70.9 -7.2,61.4 z m 94.4,102.2 -20.2,-5.4 2.7,10.1 z m 107.2,28.7 -86,-23 19.9,74.2 54.8,-31.6 z m -62,-425.9 23.1,13.3 11.7,-20.4 -15.4,-4.1 z m 212.4,165.5 -15.4,-8.9 6.5,24.3 z M 27.8,38.7 43.2,47.6 36.7,23.3 z m 120,-207.8 -8.9,15.4 24.3,-6.5 z m 87.8,327.9 8.9,-15.4 -24.3,6.5 z m 84.9,-147 13.6,50.7 26.3,-45.5 -13.6,-50.7 z m 1,72.5 -50.7,13.6 -26.3,45.5 50.8,-13.6 z M 36.7,23.3 62.9,-22.1 49.3,-72.9 23.1,-27.4 z m 25.2,-118 50.7,-13.6 26.3,-45.4 -50.7,13.6 z m -17.2,4.6 4.6,17.2 12.6,-21.8 z m 294,169.8 -4.6,-17.2 -12.6,21.8 z M -24.8,8.4 -4.4,20.2 23.1,-27.4 8.9,-80.4 -1.7,-77.6 z m 385.2,8.6 14.2,53.1 10.6,-2.9 23,-86 -20.4,-11.8 z m 14.2,53.1 -35.9,9.6 9.6,35.8 25.8,-6.9 5.4,-20.2 z M 8.9,-80.4 44.7,-90.1 35.1,-125.9 9.4,-119 3.9,-98.8 z m 339.4,195.9 -53,14.3 -27.5,47.5 9.5,5.5 77.1,-44.5 z M 29,-148.7 l 6.1,22.8 53.1,-14.2 27.4,-47.6 -9.5,-5.5 z m 339.3,279 -13.9,8 5.9,21.8 z m -353.1,-271 13.8,-8 -5.8,-21.8 z m 87,265.3 L 88.7,73.9 43.2,47.6 56.8,98.4 z m 118,25.3 -45.4,-26.3 -50.8,13.6 45.5,26.3 z m 47.6,27.4 -32.2,-18.5 -18.5,32.1 23.1,13.3 18.1,-10.4 z M 9.2,70.9 27.8,38.7 -4.4,20.2 -17.7,43.3 -7.2,61.4 z m 376,-3.7 -5.7,21.2 4.7,17.5 75.2,-20.1 0,-38.5 z M 459.4,10.8 427.8,-7.5 459.4,47.3 z M -17.7,43.3 -28.9,23.9 -34.7,45.5 -23,52.3 z m 391.8,65.3 -5.8,21.7 19.4,-11.2 -3.5,-13.2 z m -4.4,86.8 -9.4,-35.3 -16.4,61.1 z m -92.4,-12.6 -19,11 -9.1,15.7 67.5,38.9 27.2,-27.2 z m 3.9,-317.8 13.6,50.7 45.5,26.3 -13.6,-50.7 z m -72.5,1 50.7,-13.6 -45.5,-26.2 -50.7,13.6 z m 165.5,52.7 -18.5,32.2 32.1,18.5 13.4,-23 -10.5,-18.2 z m -258.6,-106.4 32.2,18.6 18.6,-32.2 -23.1,-13.3 -18.2,10.4 z m 285.6,134.1 11.2,19.4 5.8,-21.7 -11.8,-6.8 z M -76,-21.2 -44.4,-2.9 -76,-57.7 -1.7,-77.6 3.9,-98.8 -0.8,-116.3 -76,-96.1 z m 89.7,-184.6 9.5,35.3 16.3,-61.1 66.6,38.4 19,-11 9.1,-15.7 -67.5,-38.9 z m -4.3,86.8 5.8,-21.7 -19.5,11.3 3.5,13.1 z m 334.5,340.2 0,0 0,0 z M 106.8,141.8 124,137.2 102.2,124.6 z m 169.8,-294 -17.2,4.6 21.8,12.6 z M 48.2,157.5 71,151.4 56.8,98.4 9.2,70.9 3.7,80.4 z m 287,-325.4 -22.8,6.1 14.3,53.1 47.5,27.4 5.5,-9.5 z m -218.7,345.6 -9.7,-35.9 -35.8,9.6 6.9,25.8 20.2,5.4 z m 150.5,-365.8 9.6,35.9 35.8,-9.6 -6.9,-25.7 -20.2,-5.5 z m -61.7,399.4 11.8,-20.4 -47.6,-27.4 -53,14.2 2.8,10.6 z m 8.6,-385.1 53.1,-14.3 -2.9,-10.5 -86,-23.1 -11.7,20.4 z m -157.7,345.2 -8,-13.9 -21.8,5.9 z m 271,-353.1 8,13.8 21.8,-5.8 z m 65.1,-1.5 -35.3,9.5 61.2,16.3 -38.5,66.6 11,19 15.7,9.1 38.9,-67.5 z m -86.8,-4.3 21.7,5.8 -11.2,-19.5 -13.2,3.5 z m -41.4,-11.1 21.2,5.6 17.5,-4.7 -20.1,-75.2 -38.5,0 z m -56.4,-74.3 -18.3,31.6 54.8,-31.6 z m 32.5,477.1 -19.4,11.2 21.6,5.8 6.8,-11.7 z m -162.3,-27 -21.7,-5.8 11.3,19.4 13.1,-3.5 z M -8.9,172.8 26.4,163.4 -34.7,147 3.7,80.4 -7.2,61.4 -23,52.3 -61.9,119.8 z m 152.2,-387.4 19.4,-11.2 -21.7,-5.8 -6.8,11.7 z m 32.4,477.1 18.3,-31.6 -54.8,31.6 -19.9,-74.2 -21.2,-5.7 -17.5,4.7 20.2,75.2 z m 236.7,-296.7 -4.2,15.4 19.6,11.3 z M -28.9,23.9 -24.8,8.4 -44.4,-2.9 z m 191.6,-249.7 15.4,4.1 11.3,-19.6 z m 58.1,441.2 -15.5,-4.1 -11.3,19.6 z m 21.60968,-548.51005 -34.7098,60.21962 36.49238,0 38.50045,0 20.1005,75.19772 13.21599,-3.50379 11.18745,19.50633 29.81276,7.9911 35.28344,-9.50728 -149.88317,-149.9037 z m 149.88317,149.9037 53.00726,53.00719 -38.91024,67.493549 11.80215,6.802628 -5.7986,21.698778 15.40837,26.6982341 31.59534,18.2974639 0,-211.987993 -67.10428,17.99015 z m 67.10428,193.997843 0,36.512837 0,38.50045 -75.19773,20.1005 3.50373,13.19546 -19.40385,11.20798 -7.99104,29.79224 9.38435,35.30396 149.9037,-149.903696 -60.19916,-34.709731 z m -89.70454,184.613427 -25.79668,25.79675 -27.19006,27.19006 -67.51407,-38.88979 -6.7821,11.69973 -21.61676,-5.79866 -26.80071,15.49032 -18.29747,31.61587 212.00839,0 -18.01054,-67.10428 z m -193.99785,67.10428 -74.89034,0 L 80.601343,187.29095 67.508365,190.79474 56.197971,171.39083 26.405738,163.39985 -8.8982968,172.80466 141.0054,322.70836 175.69474,262.5092 z M -8.8982968,172.80466 -61.905491,119.79746 -22.99531,52.303852 l -11.699668,-6.802628 5.798593,-21.596231 -15.510779,-26.8007161 -31.59534,-18.2974639 0,211.987927 67.1042072,-17.99008 z m -67.1042072,-193.997847 0,-74.910871 75.19772848,-20.202982 -3.50379618,-13.09305 19.5063317,-11.28987 8.011562,-29.81269 -9.507288,-35.30403 -149.903704,149.903697 60.199166,34.709796 z m 89.704538,-184.613493 53.00726,-52.98674 67.493486,38.88972 6.80262,-11.69973 21.69878,5.79866 26.6983,-15.49032 18.2974,-31.59534 -212.0084517,0 18.0106057,67.08375 z m 152.690316,4.50776 -18.58432,32.18958 15.38791,8.91305 50.7124,-13.60526 -47.51599,-27.49737 z m 47.51599,27.49737 45.48745,26.20648 17.21147,-4.61018 -9.60977,-35.89821 -53.08915,14.30191 z m 62.69892,21.5963 4.58972,17.21147 45.50792,26.2885 -14.30192,-53.08922 -35.79572,9.58925 z m 50.09764,43.49997 13.60525,50.712333 15.38791,8.892592 18.5023,-32.189578 -47.49546,-27.415347 z m 28.99316,59.604925 -8.89266,15.408363 13.5848,50.691875 27.41541,-47.597876 -32.10755,-18.502362 z m 4.69214,66.100238 -26.2885,45.507977 4.58972,17.190947 35.91873,-9.589248 -14.21995,-53.109676 z m -21.69878,62.698924 -17.19094,4.610247 -26.20648,45.487456 53.00719,-14.30198 -9.60977,-35.795723 z m -43.39742,50.097703 -50.79436,13.60526 -8.89259,15.40836 32.18951,18.48177 27.49744,-47.49539 z m -59.68695,29.01362 -15.40836,-8.91312 -50.69188,13.60526 47.59794,27.39489 18.5023,-32.08703 z m -66.10024,4.69214 -45.50791,-26.30896 -17.19101,4.61018 9.69166,35.89821 53.00726,-14.19943 z M 106.80789,141.80349 102.1977,124.59202 56.79221,98.406067 70.991639,151.39274 106.80789,141.80349 z M 56.79221,98.406067 43.20741,47.591253 27.799047,38.698595 9.1942685,70.908631 56.79221,98.406067 z M 27.799047,38.698595 36.69164,23.290232 23.106906,-27.401577 -4.3905311,20.196299 27.799047,38.698595 z m -4.692141,-66.100172 26.185955,-45.507977 -4.589725,-17.190947 -35.7957253,9.691664 14.1994953,53.00726 z m 21.59623,-62.698924 17.191012,-4.589725 26.30896,-45.405494 -53.109676,14.19943 9.609704,35.795789 z m 43.499972,-49.995219 50.691872,-13.60526 8.91305,-15.40836 -32.21003,-18.58432 -27.394892,47.59794 z m 120.500742,6.10591 -96.0973,25.69433 -49.708432,86.20074 25.796746,95.994953 86.098326,49.708297 96.01541,-25.714722 49.68784,-86.098326 -25.6942,-96.097369 -86.09839,-49.687903 z"
           style="fill:#ffffff;fill-opacity:1"
           id="polygon14181"
           inkscape:connector-curvature="0" />
      </g>
      <g
         id="g14225"
         transform="matrix(1.5251458,0,0,1.5251458,-2525.0226,1576.0102)"
         style="fill:#ffffff;fill-opacity:0.39215686">
        <path
           d="M 320.5,11.8 346.8,-33.7 340.3,-58 294.8,-84.3 z M 62.9,-22.1 36.7,23.3 43.2,47.6 88.7,73.9 z m 181.6,165.5 26.3,-45.5 -96,25.7 45.4,26.3 z m -35.8,-277.4 -45.5,-26.2 -24.3,6.5 -26.3,45.4 z M 334.1,62.5 320.5,11.8 270.8,97.9 321.5,84.3 z m -221.5,-170.8 -50.7,13.6 -12.6,21.8 13.6,50.8 z m 272.6,175.5 -10.6,2.9 4.9,18.3 z M -1.7,-77.6 8.9,-80.4 3.9,-98.8 z m 375.8,186.2 -25.8,6.9 6.1,22.8 13.9,-8 z M 29,-148.7 l 77.1,-44.5 -66.6,-38.4 -16.3,61.1 z m -19.6,29.7 25.7,-6.9 -6.1,-22.8 -13.8,8 z m 350.9,279.1 -5.9,-21.8 -77.1,44.5 66.6,38.4 0,0 z M 88.7,73.9 l 13.5,50.7 21.8,12.6 50.8,-13.6 z m 160.5,135.6 9.1,-15.7 -18.1,10.4 z M -7.2,61.4 -17.7,43.3 -23,52.3 z M -17.7,43.3 -4.4,20.2 -24.8,8.4 -28.9,23.9 z m 425.9,-62.1 -23,86 74.2,-19.9 -31.6,-54.8 z m -24,124.7 -4.7,-17.5 -5.4,20.2 z m -106.9,76.9 -9.5,-5.5 -9.5,16.5 z m -17.9,-330.4 -50.7,13.6 86.1,49.7 -13.6,-50.7 z m 131.3,75.8 10.5,18.2 5.2,-9.1 z m -265.6,-132.4 18.2,-10.4 -9.1,-5.3 z M -24.8,8.4 l 23.1,-86 -74.3,19.9 31.6,54.8 z m 426,-62 -13.4,23 20.4,11.8 4.2,-15.4 z M 3.9,-98.8 9.4,-119 l -10.2,2.7 z m 102.2,-94.4 9.5,5.5 9.5,-16.5 z M 77.9,177.2 71,151.4 l -22.8,6.1 8,13.9 z m 257.3,-345.1 44.5,77.1 38.5,-66.6 -61.2,-16.3 z M 48.2,157.5 3.7,80.4 -34.7,147 26.4,163.4 z m 257.3,-345 6.9,25.7 22.8,-6.1 -8,-13.8 z m -41.4,-11.1 2.9,10.5 18.3,-4.9 z m -144.8,386.9 -2.8,-10.6 -18.4,4.9 z m 260.4,-279.1 -5.5,9.5 16.5,9.5 z m -76.9,-106.9 -17.5,4.7 20.2,5.5 z m -62.6,401.9 -23.1,-13.3 -11.8,20.4 15.5,4.1 z m -62.1,-425.9 86,23.1 -19.9,-74.3 -54.8,31.6 z M 3.7,80.4 9.2,70.9 -7.2,61.4 z m 94.4,102.2 -20.2,-5.4 2.7,10.1 z m 107.2,28.7 -86,-23 19.9,74.2 54.8,-31.6 z m -62,-425.9 23.1,13.3 11.7,-20.4 -15.4,-4.1 z m 212.4,165.5 -15.4,-8.9 6.5,24.3 z M 27.8,38.7 43.2,47.6 36.7,23.3 z m 120,-207.8 -8.9,15.4 24.3,-6.5 z m 87.8,327.9 8.9,-15.4 -24.3,6.5 z m 84.9,-147 13.6,50.7 26.3,-45.5 -13.6,-50.7 z m 1,72.5 -50.7,13.6 -26.3,45.5 50.8,-13.6 z M 36.7,23.3 62.9,-22.1 49.3,-72.9 23.1,-27.4 z m 25.2,-118 50.7,-13.6 26.3,-45.4 -50.7,13.6 z m -17.2,4.6 4.6,17.2 12.6,-21.8 z m 294,169.8 -4.6,-17.2 -12.6,21.8 z M -24.8,8.4 -4.4,20.2 23.1,-27.4 8.9,-80.4 -1.7,-77.6 z m 385.2,8.6 14.2,53.1 10.6,-2.9 23,-86 -20.4,-11.8 z m 14.2,53.1 -35.9,9.6 9.6,35.8 25.8,-6.9 5.4,-20.2 z M 8.9,-80.4 44.7,-90.1 35.1,-125.9 9.4,-119 3.9,-98.8 z m 339.4,195.9 -53,14.3 -27.5,47.5 9.5,5.5 77.1,-44.5 z M 29,-148.7 l 6.1,22.8 53.1,-14.2 27.4,-47.6 -9.5,-5.5 z m 339.3,279 -13.9,8 5.9,21.8 z m -353.1,-271 13.8,-8 -5.8,-21.8 z m 87,265.3 L 88.7,73.9 43.2,47.6 56.8,98.4 z m 118,25.3 -45.4,-26.3 -50.8,13.6 45.5,26.3 z m 47.6,27.4 -32.2,-18.5 -18.5,32.1 23.1,13.3 18.1,-10.4 z M 9.2,70.9 27.8,38.7 -4.4,20.2 -17.7,43.3 -7.2,61.4 z m 376,-3.7 -5.7,21.2 4.7,17.5 75.2,-20.1 0,-38.5 z M 459.4,10.8 427.8,-7.5 459.4,47.3 z M -17.7,43.3 -28.9,23.9 -34.7,45.5 -23,52.3 z m 391.8,65.3 -5.8,21.7 19.4,-11.2 -3.5,-13.2 z m -4.4,86.8 -9.4,-35.3 -16.4,61.1 z m -92.4,-12.6 -19,11 -9.1,15.7 67.5,38.9 27.2,-27.2 z m 3.9,-317.8 13.6,50.7 45.5,26.3 -13.6,-50.7 z m -72.5,1 50.7,-13.6 -45.5,-26.2 -50.7,13.6 z m 165.5,52.7 -18.5,32.2 32.1,18.5 13.4,-23 -10.5,-18.2 z m -258.6,-106.4 32.2,18.6 18.6,-32.2 -23.1,-13.3 -18.2,10.4 z m 285.6,134.1 11.2,19.4 5.8,-21.7 -11.8,-6.8 z M -76,-21.2 -44.4,-2.9 -76,-57.7 -1.7,-77.6 3.9,-98.8 -0.8,-116.3 -76,-96.1 z m 89.7,-184.6 9.5,35.3 16.3,-61.1 66.6,38.4 19,-11 9.1,-15.7 -67.5,-38.9 z m -4.3,86.8 5.8,-21.7 -19.5,11.3 3.5,13.1 z m 334.5,340.2 0,0 0,0 z M 106.8,141.8 124,137.2 102.2,124.6 z m 169.8,-294 -17.2,4.6 21.8,12.6 z M 48.2,157.5 71,151.4 56.8,98.4 9.2,70.9 3.7,80.4 z m 287,-325.4 -22.8,6.1 14.3,53.1 47.5,27.4 5.5,-9.5 z m -218.7,345.6 -9.7,-35.9 -35.8,9.6 6.9,25.8 20.2,5.4 z m 150.5,-365.8 9.6,35.9 35.8,-9.6 -6.9,-25.7 -20.2,-5.5 z m -61.7,399.4 11.8,-20.4 -47.6,-27.4 -53,14.2 2.8,10.6 z m 8.6,-385.1 53.1,-14.3 -2.9,-10.5 -86,-23.1 -11.7,20.4 z m -157.7,345.2 -8,-13.9 -21.8,5.9 z m 271,-353.1 8,13.8 21.8,-5.8 z m 65.1,-1.5 -35.3,9.5 61.2,16.3 -38.5,66.6 11,19 15.7,9.1 38.9,-67.5 z m -86.8,-4.3 21.7,5.8 -11.2,-19.5 -13.2,3.5 z m -41.4,-11.1 21.2,5.6 17.5,-4.7 -20.1,-75.2 -38.5,0 z m -56.4,-74.3 -18.3,31.6 54.8,-31.6 z m 32.5,477.1 -19.4,11.2 21.6,5.8 6.8,-11.7 z m -162.3,-27 -21.7,-5.8 11.3,19.4 13.1,-3.5 z M -8.9,172.8 26.4,163.4 -34.7,147 3.7,80.4 -7.2,61.4 -23,52.3 -61.9,119.8 z m 152.2,-387.4 19.4,-11.2 -21.7,-5.8 -6.8,11.7 z m 32.4,477.1 18.3,-31.6 -54.8,31.6 -19.9,-74.2 -21.2,-5.7 -17.5,4.7 20.2,75.2 z m 236.7,-296.7 -4.2,15.4 19.6,11.3 z M -28.9,23.9 -24.8,8.4 -44.4,-2.9 z m 191.6,-249.7 15.4,4.1 11.3,-19.6 z m 58.1,441.2 -15.5,-4.1 -11.3,19.6 z"
           style="fill:#ffffff;fill-opacity:0.39215686"
           id="polygon14305"
           inkscape:connector-curvature="0" />
      </g>
      <g
         style="fill:#ffffff;fill-opacity:0.39215686"
         transform="matrix(1.5251458,0,0,1.5251458,-2525.0226,1576.0102)"
         id="g13256">
        <polygon
           points="143.3,-214.6 166.4,-201.3 178.1,-221.7 162.7,-225.8 "
           id="polygon13258"
           style="fill:#ffffff;fill-opacity:0.39215686" />
        <polygon
           points="205.3,211.3 119.3,188.3 139.2,262.5 194,230.9 "
           id="polygon13260"
           style="fill:#ffffff;fill-opacity:0.39215686" />
        <polygon
           points="77.9,177.2 80.6,187.3 98.1,182.6 "
           id="polygon13262"
           style="fill:#ffffff;fill-opacity:0.39215686" />
        <polygon
           points="9.2,70.9 -7.2,61.4 3.7,80.4 "
           id="polygon13264"
           style="fill:#ffffff;fill-opacity:0.39215686" />
        <polygon
           points="178.1,-221.7 264.1,-198.6 244.2,-272.9 189.4,-241.3 "
           id="polygon13266"
           style="fill:#ffffff;fill-opacity:0.39215686" />
        <polygon
           points="240.2,204.2 217.1,190.9 205.3,211.3 220.8,215.4 "
           id="polygon13268"
           style="fill:#ffffff;fill-opacity:0.39215686" />
        <polygon
           points="285.3,-193 305.5,-187.5 302.8,-197.7 "
           id="polygon13270"
           style="fill:#ffffff;fill-opacity:0.39215686" />
        <polygon
           points="374.2,-81.3 390.7,-71.8 379.7,-90.8 "
           id="polygon13272"
           style="fill:#ffffff;fill-opacity:0.39215686" />
        <polygon
           points="116.5,177.7 98.1,182.6 119.3,188.3 "
           id="polygon13274"
           style="fill:#ffffff;fill-opacity:0.39215686" />
        <polygon
           points="267,-188.1 285.3,-193 264.1,-198.6 "
           id="polygon13276"
           style="fill:#ffffff;fill-opacity:0.39215686" />
        <polygon
           points="305.5,-187.5 312.4,-161.8 335.2,-167.9 327.2,-181.7 "
           id="polygon13278"
           style="fill:#ffffff;fill-opacity:0.39215686" />
        <polygon
           points="48.2,157.5 3.7,80.4 -34.7,147 26.4,163.4 "
           id="polygon13280"
           style="fill:#ffffff;fill-opacity:0.39215686" />
        <polygon
           points="335.2,-167.9 379.7,-90.8 418.2,-157.4 357,-173.7 "
           id="polygon13282"
           style="fill:#ffffff;fill-opacity:0.39215686" />
        <polygon
           points="77.9,177.2 71,151.4 48.2,157.5 56.2,171.4 "
           id="polygon13284"
           style="fill:#ffffff;fill-opacity:0.39215686" />
        <polygon
           points="115.6,-187.7 125.1,-204.2 106.1,-193.2 "
           id="polygon13286"
           style="fill:#ffffff;fill-opacity:0.39215686" />
        <polygon
           points="9.4,-119 -0.8,-116.3 3.9,-98.8 "
           id="polygon13288"
           style="fill:#ffffff;fill-opacity:0.39215686" />
        <polygon
           points="401.2,-53.6 387.8,-30.6 408.2,-18.8 412.4,-34.2 "
           id="polygon13290"
           style="fill:#ffffff;fill-opacity:0.39215686" />
        <polygon
           points="-24.8,8.4 -1.7,-77.6 -76,-57.7 -44.4,-2.9 "
           id="polygon13292"
           style="fill:#ffffff;fill-opacity:0.39215686" />
        <polygon
           points="143.3,-214.6 134.2,-219.9 125.1,-204.2 "
           id="polygon13294"
           style="fill:#ffffff;fill-opacity:0.39215686" />
        <polygon
           points="401.2,-53.6 406.4,-62.7 390.7,-71.8 "
           id="polygon13296"
           style="fill:#ffffff;fill-opacity:0.39215686" />
        <polygon
           points="259.4,-147.6 208.7,-134 294.8,-84.3 281.2,-135 "
           id="polygon13298"
           style="fill:#ffffff;fill-opacity:0.39215686" />
        <polygon
           points="267.8,177.3 258.3,193.8 277.3,182.8 "
           id="polygon13300"
           style="fill:#ffffff;fill-opacity:0.39215686" />
        <polygon
           points="379.5,88.4 374.1,108.6 384.2,105.9 "
           id="polygon13302"
           style="fill:#ffffff;fill-opacity:0.39215686" />
        <polygon
           points="408.2,-18.8 385.2,67.2 459.4,47.3 427.8,-7.5 "
           id="polygon13304"
           style="fill:#ffffff;fill-opacity:0.39215686" />
        <polygon
           points="-17.7,43.3 -4.4,20.2 -24.8,8.4 -28.9,23.9 "
           id="polygon13306"
           style="fill:#ffffff;fill-opacity:0.39215686" />
        <polygon
           points="-17.7,43.3 -23,52.3 -7.2,61.4 "
           id="polygon13308"
           style="fill:#ffffff;fill-opacity:0.39215686" />
        <polygon
           points="258.3,193.8 240.2,204.2 249.2,209.5 "
           id="polygon13310"
           style="fill:#ffffff;fill-opacity:0.39215686" />
        <polygon
           points="88.7,73.9 102.2,124.6 124,137.2 174.8,123.6 "
           id="polygon13312"
           style="fill:#ffffff;fill-opacity:0.39215686" />
        <polygon
           points="354.4,138.3 277.3,182.8 343.9,221.2 343.9,221.2 360.3,160.1 "
           id="polygon13314"
           style="fill:#ffffff;fill-opacity:0.39215686" />
        <polygon
           points="9.4,-119 35.1,-125.9 29,-148.7 15.2,-140.7 "
           id="polygon13316"
           style="fill:#ffffff;fill-opacity:0.39215686" />
        <polygon
           points="29,-148.7 106.1,-193.2 39.5,-231.6 23.2,-170.5 "
           id="polygon13318"
           style="fill:#ffffff;fill-opacity:0.39215686" />
        <polygon
           points="374.1,108.6 348.3,115.5 354.4,138.3 368.3,130.3 "
           id="polygon13320"
           style="fill:#ffffff;fill-opacity:0.39215686" />
        <polygon
           points="8.9,-80.4 3.9,-98.8 -1.7,-77.6 "
           id="polygon13322"
           style="fill:#ffffff;fill-opacity:0.39215686" />
        <polygon
           points="374.6,70.1 379.5,88.4 385.2,67.2 "
           id="polygon13324"
           style="fill:#ffffff;fill-opacity:0.39215686" />
        <polygon
           points="112.6,-108.3 61.9,-94.7 49.3,-72.9 62.9,-22.1 "
           id="polygon13326"
           style="fill:#ffffff;fill-opacity:0.39215686" />
        <polygon
           points="334.1,62.5 320.5,11.8 270.8,97.9 321.5,84.3 "
           id="polygon13328"
           style="fill:#ffffff;fill-opacity:0.39215686" />
        <polygon
           points="208.7,-134 163.2,-160.2 138.9,-153.7 112.6,-108.3 "
           id="polygon13330"
           style="fill:#ffffff;fill-opacity:0.39215686" />
        <polygon
           points="244.5,143.4 270.8,97.9 174.8,123.6 220.2,149.9 "
           id="polygon13332"
           style="fill:#ffffff;fill-opacity:0.39215686" />
        <polygon
           points="62.9,-22.1 36.7,23.3 43.2,47.6 88.7,73.9 "
           id="polygon13334"
           style="fill:#ffffff;fill-opacity:0.39215686" />
        <polygon
           points="320.5,11.8 346.8,-33.7 340.3,-58 294.8,-84.3 "
           id="polygon13336"
           style="fill:#ffffff;fill-opacity:0.39215686" />
      </g>
    </g>
  </g>
</svg>
